<svg title="Madrid" id="ES-MD" width="164" height="180" viewBox="0 0 164 180" fill="none" xmlns="http://www.w3.org/2000/svg">
<g filter="url(#filter0_d_70_118)">
<path d="M34.7815 65.8948L36.5804 68.9612L30.2176 69.7611L30.4508 67.1613L34.7815 65.8948ZM109.97 0L115.266 9.59923L121.629 11.0324L120.363 16.5654L124.827 22.2982L122.429 23.9981L119.73 34.6972L118.131 34.6639L120.097 38.9969L116.799 40.5634L116.499 45.6964L113.001 50.7626L117.565 51.3626L119.864 54.529L119.098 57.5954L120.83 58.562L117.432 64.0949L123.828 66.728L125.027 63.6949L130.591 71.2276L132.789 68.8612L130.724 72.7275L131.457 76.4939L136.287 79.9603L134.888 84.5266L139.718 83.66L144.749 87.5597L144.949 97.2589L149.313 97.6922L151.911 102.258L145.248 123.29L147.547 125.123L154.043 118.291L158.307 135.323L156.209 134.623L155.342 137.322L159.473 141.222L159.04 144.255L153.21 148.088L148.78 147.622L147.381 144.188L144.316 148.455L136.987 149.988L131.09 145.455L126.726 146.322L124.961 151.621L113.434 149.921L112.135 153.554L105.006 154.554L100.042 157.854L100.375 160.854L89.1488 164.254L83.1191 171.686L76.3898 169.02L75.7569 165.82L79.5213 164.02L80.2542 165.62L80.9871 163.42L84.8514 163.454L87.1167 160.821L86.5837 163.154L88.0828 163.02L87.4832 160.254L91.081 160.854L89.0156 158.954L101.875 148.921L103.307 141.889L97.144 137.289L94.6789 138.722L91.6473 136.689L89.1488 138.722L82.9193 132.756L79.9544 134.923L75.7569 130.956L70.1603 129.256L68.2947 131.223L67.9283 128.123L63.8973 128.456L60.6993 123.19L55.8355 121.09L52.4709 124.157L48.44 123.723L48.4067 121.157L43.5762 116.791L42.3103 120.524L38.0129 119.89L35.4144 125.29L30.2842 126.357L27.5525 124.823L26.6531 115.058L24.1879 113.891L23.8881 117.791L18.6245 121.79L18.458 124.69L8.39733 129.79L4 127.423L5.86554 126.723L4.99941 122.124L9.09693 117.391L7.33133 110.791L9.39674 110.425L11.6621 114.424L16.6591 113.791L20.0903 102.225L30.4174 101.659L28.4187 99.1921L30.8838 94.3258L29.6512 85.0265L33.6155 81.0602L33.5822 72.5275L38.446 75.9606L46.741 73.1275L46.8409 64.1949L56.0687 50.2293L65.2965 51.5292L69.5939 32.2641L73.958 26.8979L85.551 22.3982L89.915 15.1654L96.3112 10.7658L102.774 2.2998L109.97 0V0ZM127.759 70.861L127.193 72.7942L126.06 72.1609L127.759 70.861V70.861Z" fill="black"/>
</g>
<defs>
<filter id="filter0_d_70_118" x="0" y="0" width="163.474" height="179.686" filterUnits="userSpaceOnUse" color-interpolation-filters="sRGB">
<feFlood flood-opacity="0" result="BackgroundImageFix"/>
<feColorMatrix in="SourceAlpha" type="matrix" values="0 0 0 0 0 0 0 0 0 0 0 0 0 0 0 0 0 0 127 0" result="hardAlpha"/>
<feOffset dy="4"/>
<feGaussianBlur stdDeviation="2"/>
<feComposite in2="hardAlpha" operator="out"/>
<feColorMatrix type="matrix" values="0 0 0 0 0 0 0 0 0 0 0 0 0 0 0 0 0 0 0.25 0"/>
<feBlend mode="normal" in2="BackgroundImageFix" result="effect1_dropShadow_70_118"/>
<feBlend mode="normal" in="SourceGraphic" in2="effect1_dropShadow_70_118" result="shape"/>
</filter>
</defs>
</svg>
